<mxfile host="app.diagrams.net" modified="2024-05-12T14:06:03.121Z" agent="Mozilla/5.0 (X11; Linux x86_64) AppleWebKit/537.36 (KHTML, like Gecko) Chrome/124.0.0.0 Safari/537.36" etag="H27oq9bmG9gK_4Tz-p-9" version="24.4.0" type="device">
  <diagram name="Encrypt" id="o71IDkHV3ZvDwMHHaNhy">
    <mxGraphModel dx="1066" dy="694" grid="1" gridSize="10" guides="1" tooltips="1" connect="1" arrows="1" fold="1" page="1" pageScale="1" pageWidth="850" pageHeight="1100" math="0" shadow="0">
      <root>
        <mxCell id="0" />
        <mxCell id="1" parent="0" />
        <mxCell id="QVkCIDDhiGdK2KimFXB9-37" style="edgeStyle=orthogonalEdgeStyle;rounded=0;orthogonalLoop=1;jettySize=auto;html=1;entryX=0;entryY=0.5;entryDx=0;entryDy=0;" edge="1" parent="1" source="7T_0Ri3ZbX09s26zW6ti-1" target="Rr33tOqjU5spiXmUpDak-57">
          <mxGeometry relative="1" as="geometry" />
        </mxCell>
        <mxCell id="QVkCIDDhiGdK2KimFXB9-40" value="next()" style="edgeLabel;html=1;align=center;verticalAlign=middle;resizable=0;points=[];" vertex="1" connectable="0" parent="QVkCIDDhiGdK2KimFXB9-37">
          <mxGeometry x="-0.2465" y="-1" relative="1" as="geometry">
            <mxPoint x="6" y="-6" as="offset" />
          </mxGeometry>
        </mxCell>
        <mxCell id="7T_0Ri3ZbX09s26zW6ti-1" value="CTR&lt;sub&gt;1&lt;/sub&gt;" style="rounded=0;whiteSpace=wrap;html=1;" parent="1" vertex="1">
          <mxGeometry x="150" y="70" width="120" height="30" as="geometry" />
        </mxCell>
        <mxCell id="7T_0Ri3ZbX09s26zW6ti-19" value="" style="endArrow=classic;html=1;rounded=0;exitX=0.5;exitY=1;exitDx=0;exitDy=0;entryX=0.5;entryY=0;entryDx=0;entryDy=0;entryPerimeter=0;" parent="1" source="7T_0Ri3ZbX09s26zW6ti-1" edge="1">
          <mxGeometry width="50" height="50" relative="1" as="geometry">
            <mxPoint x="310" y="200" as="sourcePoint" />
            <mxPoint x="210" y="155" as="targetPoint" />
          </mxGeometry>
        </mxCell>
        <mxCell id="Rr33tOqjU5spiXmUpDak-56" style="edgeStyle=orthogonalEdgeStyle;rounded=0;orthogonalLoop=1;jettySize=auto;html=1;entryX=0.5;entryY=0;entryDx=0;entryDy=0;" parent="1" source="Rr33tOqjU5spiXmUpDak-40" target="Rr33tOqjU5spiXmUpDak-55" edge="1">
          <mxGeometry relative="1" as="geometry" />
        </mxCell>
        <mxCell id="Rr33tOqjU5spiXmUpDak-40" value="" style="verticalLabelPosition=bottom;verticalAlign=top;html=1;shape=mxgraph.flowchart.summing_function;" parent="1" vertex="1">
          <mxGeometry x="200" y="250" width="20" height="20" as="geometry" />
        </mxCell>
        <mxCell id="Rr33tOqjU5spiXmUpDak-44" value="" style="endArrow=classic;html=1;rounded=0;entryX=0;entryY=0.5;entryDx=0;entryDy=0;" parent="1" edge="1">
          <mxGeometry width="50" height="50" relative="1" as="geometry">
            <mxPoint x="130" y="180" as="sourcePoint" />
            <mxPoint x="160" y="180" as="targetPoint" />
          </mxGeometry>
        </mxCell>
        <mxCell id="Rr33tOqjU5spiXmUpDak-45" value="K&lt;sub&gt;1&lt;/sub&gt;" style="text;html=1;strokeColor=default;fillColor=none;align=center;verticalAlign=middle;whiteSpace=wrap;rounded=0;" parent="1" vertex="1">
          <mxGeometry x="90" y="165" width="40" height="30" as="geometry" />
        </mxCell>
        <mxCell id="Rr33tOqjU5spiXmUpDak-46" value="AES&lt;sub&gt;Enc&lt;/sub&gt;" style="rounded=0;whiteSpace=wrap;html=1;" parent="1" vertex="1">
          <mxGeometry x="160" y="155" width="100" height="50" as="geometry" />
        </mxCell>
        <mxCell id="Rr33tOqjU5spiXmUpDak-52" style="edgeStyle=orthogonalEdgeStyle;rounded=0;orthogonalLoop=1;jettySize=auto;html=1;entryX=0.5;entryY=0;entryDx=0;entryDy=0;entryPerimeter=0;" parent="1" source="Rr33tOqjU5spiXmUpDak-46" target="Rr33tOqjU5spiXmUpDak-40" edge="1">
          <mxGeometry relative="1" as="geometry" />
        </mxCell>
        <mxCell id="Rr33tOqjU5spiXmUpDak-53" value="M&lt;sub&gt;1&lt;/sub&gt;" style="rounded=0;whiteSpace=wrap;html=1;" parent="1" vertex="1">
          <mxGeometry x="80" y="245" width="80" height="30" as="geometry" />
        </mxCell>
        <mxCell id="Rr33tOqjU5spiXmUpDak-54" style="edgeStyle=orthogonalEdgeStyle;rounded=0;orthogonalLoop=1;jettySize=auto;html=1;entryX=0;entryY=0.5;entryDx=0;entryDy=0;entryPerimeter=0;" parent="1" source="Rr33tOqjU5spiXmUpDak-53" target="Rr33tOqjU5spiXmUpDak-40" edge="1">
          <mxGeometry relative="1" as="geometry" />
        </mxCell>
        <mxCell id="Rr33tOqjU5spiXmUpDak-55" value="C&lt;sub&gt;1&lt;/sub&gt;" style="rounded=0;whiteSpace=wrap;html=1;" parent="1" vertex="1">
          <mxGeometry x="145" y="320" width="130" height="30" as="geometry" />
        </mxCell>
        <mxCell id="QVkCIDDhiGdK2KimFXB9-38" style="edgeStyle=orthogonalEdgeStyle;rounded=0;orthogonalLoop=1;jettySize=auto;html=1;" edge="1" parent="1" source="Rr33tOqjU5spiXmUpDak-57">
          <mxGeometry relative="1" as="geometry">
            <mxPoint x="540" y="85" as="targetPoint" />
          </mxGeometry>
        </mxCell>
        <mxCell id="QVkCIDDhiGdK2KimFXB9-41" value="next()" style="edgeLabel;html=1;align=center;verticalAlign=middle;resizable=0;points=[];" vertex="1" connectable="0" parent="QVkCIDDhiGdK2KimFXB9-38">
          <mxGeometry x="-0.226" y="-1" relative="1" as="geometry">
            <mxPoint as="offset" />
          </mxGeometry>
        </mxCell>
        <mxCell id="Rr33tOqjU5spiXmUpDak-57" value="CTR&lt;sub&gt;2&lt;/sub&gt;" style="rounded=0;whiteSpace=wrap;html=1;" parent="1" vertex="1">
          <mxGeometry x="360" y="70" width="120" height="30" as="geometry" />
        </mxCell>
        <mxCell id="Rr33tOqjU5spiXmUpDak-58" value="" style="endArrow=classic;html=1;rounded=0;exitX=0.5;exitY=1;exitDx=0;exitDy=0;entryX=0.5;entryY=0;entryDx=0;entryDy=0;entryPerimeter=0;" parent="1" source="Rr33tOqjU5spiXmUpDak-57" edge="1">
          <mxGeometry width="50" height="50" relative="1" as="geometry">
            <mxPoint x="520" y="200" as="sourcePoint" />
            <mxPoint x="420" y="155" as="targetPoint" />
          </mxGeometry>
        </mxCell>
        <mxCell id="Rr33tOqjU5spiXmUpDak-59" style="edgeStyle=orthogonalEdgeStyle;rounded=0;orthogonalLoop=1;jettySize=auto;html=1;entryX=0.5;entryY=0;entryDx=0;entryDy=0;" parent="1" source="Rr33tOqjU5spiXmUpDak-60" target="Rr33tOqjU5spiXmUpDak-67" edge="1">
          <mxGeometry relative="1" as="geometry" />
        </mxCell>
        <mxCell id="Rr33tOqjU5spiXmUpDak-60" value="" style="verticalLabelPosition=bottom;verticalAlign=top;html=1;shape=mxgraph.flowchart.summing_function;" parent="1" vertex="1">
          <mxGeometry x="410" y="250" width="20" height="20" as="geometry" />
        </mxCell>
        <mxCell id="Rr33tOqjU5spiXmUpDak-61" value="" style="endArrow=classic;html=1;rounded=0;entryX=0;entryY=0.5;entryDx=0;entryDy=0;" parent="1" edge="1">
          <mxGeometry width="50" height="50" relative="1" as="geometry">
            <mxPoint x="340" y="180" as="sourcePoint" />
            <mxPoint x="370" y="180" as="targetPoint" />
          </mxGeometry>
        </mxCell>
        <mxCell id="Rr33tOqjU5spiXmUpDak-62" value="K&lt;sub&gt;2&lt;/sub&gt;" style="text;html=1;strokeColor=default;fillColor=none;align=center;verticalAlign=middle;whiteSpace=wrap;rounded=0;" parent="1" vertex="1">
          <mxGeometry x="300" y="165" width="40" height="30" as="geometry" />
        </mxCell>
        <mxCell id="Rr33tOqjU5spiXmUpDak-63" value="AES&lt;sub&gt;Enc&lt;/sub&gt;" style="rounded=0;whiteSpace=wrap;html=1;" parent="1" vertex="1">
          <mxGeometry x="370" y="155" width="100" height="50" as="geometry" />
        </mxCell>
        <mxCell id="Rr33tOqjU5spiXmUpDak-64" style="edgeStyle=orthogonalEdgeStyle;rounded=0;orthogonalLoop=1;jettySize=auto;html=1;entryX=0.5;entryY=0;entryDx=0;entryDy=0;entryPerimeter=0;" parent="1" source="Rr33tOqjU5spiXmUpDak-63" target="Rr33tOqjU5spiXmUpDak-60" edge="1">
          <mxGeometry relative="1" as="geometry" />
        </mxCell>
        <mxCell id="Rr33tOqjU5spiXmUpDak-65" value="M&lt;sub&gt;2&lt;/sub&gt;" style="rounded=0;whiteSpace=wrap;html=1;" parent="1" vertex="1">
          <mxGeometry x="290" y="245" width="80" height="30" as="geometry" />
        </mxCell>
        <mxCell id="Rr33tOqjU5spiXmUpDak-66" style="edgeStyle=orthogonalEdgeStyle;rounded=0;orthogonalLoop=1;jettySize=auto;html=1;entryX=0;entryY=0.5;entryDx=0;entryDy=0;entryPerimeter=0;" parent="1" source="Rr33tOqjU5spiXmUpDak-65" target="Rr33tOqjU5spiXmUpDak-60" edge="1">
          <mxGeometry relative="1" as="geometry" />
        </mxCell>
        <mxCell id="Rr33tOqjU5spiXmUpDak-67" value="C&lt;sub&gt;2&lt;/sub&gt;" style="rounded=0;whiteSpace=wrap;html=1;" parent="1" vertex="1">
          <mxGeometry x="355" y="320" width="130" height="30" as="geometry" />
        </mxCell>
        <mxCell id="Rr33tOqjU5spiXmUpDak-68" value="CTR&lt;sub&gt;n&lt;/sub&gt;" style="rounded=0;whiteSpace=wrap;html=1;" parent="1" vertex="1">
          <mxGeometry x="650" y="70" width="120" height="30" as="geometry" />
        </mxCell>
        <mxCell id="Rr33tOqjU5spiXmUpDak-69" value="" style="endArrow=classic;html=1;rounded=0;exitX=0.5;exitY=1;exitDx=0;exitDy=0;entryX=0.5;entryY=0;entryDx=0;entryDy=0;entryPerimeter=0;" parent="1" source="Rr33tOqjU5spiXmUpDak-68" edge="1">
          <mxGeometry width="50" height="50" relative="1" as="geometry">
            <mxPoint x="810" y="190" as="sourcePoint" />
            <mxPoint x="710" y="145" as="targetPoint" />
          </mxGeometry>
        </mxCell>
        <mxCell id="Rr33tOqjU5spiXmUpDak-70" style="edgeStyle=orthogonalEdgeStyle;rounded=0;orthogonalLoop=1;jettySize=auto;html=1;entryX=0.5;entryY=0;entryDx=0;entryDy=0;" parent="1" source="Rr33tOqjU5spiXmUpDak-71" target="Rr33tOqjU5spiXmUpDak-78" edge="1">
          <mxGeometry relative="1" as="geometry" />
        </mxCell>
        <mxCell id="Rr33tOqjU5spiXmUpDak-71" value="" style="verticalLabelPosition=bottom;verticalAlign=top;html=1;shape=mxgraph.flowchart.summing_function;" parent="1" vertex="1">
          <mxGeometry x="700" y="240" width="20" height="20" as="geometry" />
        </mxCell>
        <mxCell id="Rr33tOqjU5spiXmUpDak-72" value="" style="endArrow=classic;html=1;rounded=0;entryX=0;entryY=0.5;entryDx=0;entryDy=0;" parent="1" edge="1">
          <mxGeometry width="50" height="50" relative="1" as="geometry">
            <mxPoint x="630" y="170" as="sourcePoint" />
            <mxPoint x="660" y="170" as="targetPoint" />
          </mxGeometry>
        </mxCell>
        <mxCell id="Rr33tOqjU5spiXmUpDak-73" value="K&lt;sub&gt;n&lt;/sub&gt;" style="text;html=1;strokeColor=default;fillColor=none;align=center;verticalAlign=middle;whiteSpace=wrap;rounded=0;" parent="1" vertex="1">
          <mxGeometry x="590" y="155" width="40" height="30" as="geometry" />
        </mxCell>
        <mxCell id="Rr33tOqjU5spiXmUpDak-74" value="AES&lt;sub&gt;Enc&lt;/sub&gt;" style="rounded=0;whiteSpace=wrap;html=1;" parent="1" vertex="1">
          <mxGeometry x="660" y="145" width="100" height="50" as="geometry" />
        </mxCell>
        <mxCell id="Rr33tOqjU5spiXmUpDak-75" style="edgeStyle=orthogonalEdgeStyle;rounded=0;orthogonalLoop=1;jettySize=auto;html=1;entryX=0.5;entryY=0;entryDx=0;entryDy=0;entryPerimeter=0;" parent="1" source="Rr33tOqjU5spiXmUpDak-74" target="Rr33tOqjU5spiXmUpDak-71" edge="1">
          <mxGeometry relative="1" as="geometry" />
        </mxCell>
        <mxCell id="Rr33tOqjU5spiXmUpDak-76" value="M&lt;sub&gt;n&lt;/sub&gt;" style="rounded=0;whiteSpace=wrap;html=1;" parent="1" vertex="1">
          <mxGeometry x="580" y="235" width="80" height="30" as="geometry" />
        </mxCell>
        <mxCell id="Rr33tOqjU5spiXmUpDak-77" style="edgeStyle=orthogonalEdgeStyle;rounded=0;orthogonalLoop=1;jettySize=auto;html=1;entryX=0;entryY=0.5;entryDx=0;entryDy=0;entryPerimeter=0;" parent="1" source="Rr33tOqjU5spiXmUpDak-76" target="Rr33tOqjU5spiXmUpDak-71" edge="1">
          <mxGeometry relative="1" as="geometry" />
        </mxCell>
        <mxCell id="Rr33tOqjU5spiXmUpDak-78" value="C&lt;sub&gt;n&lt;/sub&gt;" style="rounded=0;whiteSpace=wrap;html=1;" parent="1" vertex="1">
          <mxGeometry x="645" y="310" width="130" height="30" as="geometry" />
        </mxCell>
        <mxCell id="Rr33tOqjU5spiXmUpDak-79" value="..." style="text;html=1;align=center;verticalAlign=middle;whiteSpace=wrap;rounded=0;" parent="1" vertex="1">
          <mxGeometry x="510" y="175" width="60" height="30" as="geometry" />
        </mxCell>
        <mxCell id="QVkCIDDhiGdK2KimFXB9-35" value="(A)" style="text;html=1;strokeColor=none;fillColor=none;align=center;verticalAlign=middle;whiteSpace=wrap;rounded=0;fontStyle=1" vertex="1" parent="1">
          <mxGeometry x="407.5" y="350" width="40" height="30" as="geometry" />
        </mxCell>
        <mxCell id="QVkCIDDhiGdK2KimFXB9-39" style="edgeStyle=orthogonalEdgeStyle;rounded=0;orthogonalLoop=1;jettySize=auto;html=1;entryX=0;entryY=0.5;entryDx=0;entryDy=0;" edge="1" parent="1" target="Rr33tOqjU5spiXmUpDak-68">
          <mxGeometry relative="1" as="geometry">
            <mxPoint x="556" y="95" as="targetPoint" />
            <mxPoint x="590" y="85" as="sourcePoint" />
          </mxGeometry>
        </mxCell>
        <mxCell id="QVkCIDDhiGdK2KimFXB9-42" value="next()" style="edgeLabel;html=1;align=center;verticalAlign=middle;resizable=0;points=[];" vertex="1" connectable="0" parent="QVkCIDDhiGdK2KimFXB9-39">
          <mxGeometry x="-0.3215" y="1" relative="1" as="geometry">
            <mxPoint x="4" y="1" as="offset" />
          </mxGeometry>
        </mxCell>
        <mxCell id="QVkCIDDhiGdK2KimFXB9-45" value="" style="whiteSpace=wrap;html=1;strokeColor=none;" vertex="1" parent="1">
          <mxGeometry x="190" y="114" width="40" height="10" as="geometry" />
        </mxCell>
        <mxCell id="QVkCIDDhiGdK2KimFXB9-47" style="edgeStyle=orthogonalEdgeStyle;rounded=0;orthogonalLoop=1;jettySize=auto;html=1;entryX=0;entryY=0.5;entryDx=0;entryDy=0;" edge="1" parent="1" source="Rr33tOqjU5spiXmUpDak-45" target="Rr33tOqjU5spiXmUpDak-62">
          <mxGeometry relative="1" as="geometry">
            <Array as="points">
              <mxPoint x="110" y="120" />
              <mxPoint x="280" y="120" />
              <mxPoint x="280" y="180" />
            </Array>
          </mxGeometry>
        </mxCell>
        <mxCell id="QVkCIDDhiGdK2KimFXB9-49" value="next()" style="edgeLabel;html=1;align=center;verticalAlign=middle;resizable=0;points=[];" vertex="1" connectable="0" parent="QVkCIDDhiGdK2KimFXB9-47">
          <mxGeometry x="-0.5688" y="1" relative="1" as="geometry">
            <mxPoint x="15" as="offset" />
          </mxGeometry>
        </mxCell>
        <mxCell id="QVkCIDDhiGdK2KimFXB9-51" value="IV" style="text;html=1;strokeColor=default;fillColor=default;align=center;verticalAlign=middle;whiteSpace=wrap;rounded=0;" vertex="1" parent="1">
          <mxGeometry x="70" y="70" width="40" height="30" as="geometry" />
        </mxCell>
        <mxCell id="QVkCIDDhiGdK2KimFXB9-52" style="edgeStyle=orthogonalEdgeStyle;rounded=0;orthogonalLoop=1;jettySize=auto;html=1;entryX=0;entryY=0.5;entryDx=0;entryDy=0;" edge="1" parent="1" source="QVkCIDDhiGdK2KimFXB9-51" target="7T_0Ri3ZbX09s26zW6ti-1">
          <mxGeometry relative="1" as="geometry" />
        </mxCell>
        <mxCell id="QVkCIDDhiGdK2KimFXB9-55" value="" style="endArrow=classic;html=1;rounded=0;" edge="1" parent="1" target="Rr33tOqjU5spiXmUpDak-45">
          <mxGeometry width="50" height="50" relative="1" as="geometry">
            <mxPoint x="50" y="180" as="sourcePoint" />
            <mxPoint x="140" y="120" as="targetPoint" />
          </mxGeometry>
        </mxCell>
        <mxCell id="QVkCIDDhiGdK2KimFXB9-58" value="" style="endArrow=classic;html=1;rounded=0;entryX=0;entryY=0.5;entryDx=0;entryDy=0;" edge="1" parent="1" target="QVkCIDDhiGdK2KimFXB9-51">
          <mxGeometry width="50" height="50" relative="1" as="geometry">
            <mxPoint x="40" y="85" as="sourcePoint" />
            <mxPoint x="100" y="190" as="targetPoint" />
          </mxGeometry>
        </mxCell>
        <mxCell id="QVkCIDDhiGdK2KimFXB9-59" value="" style="whiteSpace=wrap;html=1;strokeColor=none;" vertex="1" parent="1">
          <mxGeometry x="400" y="114" width="40" height="10" as="geometry" />
        </mxCell>
        <mxCell id="QVkCIDDhiGdK2KimFXB9-54" style="edgeStyle=orthogonalEdgeStyle;rounded=0;orthogonalLoop=1;jettySize=auto;html=1;" edge="1" parent="1" source="Rr33tOqjU5spiXmUpDak-62">
          <mxGeometry relative="1" as="geometry">
            <mxPoint x="500" y="120" as="targetPoint" />
            <Array as="points">
              <mxPoint x="320" y="120" />
              <mxPoint x="490" y="120" />
            </Array>
          </mxGeometry>
        </mxCell>
        <mxCell id="QVkCIDDhiGdK2KimFXB9-62" value="next()" style="edgeLabel;html=1;align=center;verticalAlign=middle;resizable=0;points=[];" vertex="1" connectable="0" parent="QVkCIDDhiGdK2KimFXB9-54">
          <mxGeometry x="-0.325" y="-1" relative="1" as="geometry">
            <mxPoint as="offset" />
          </mxGeometry>
        </mxCell>
        <mxCell id="QVkCIDDhiGdK2KimFXB9-61" value="" style="endArrow=classic;html=1;rounded=0;entryX=0;entryY=0.5;entryDx=0;entryDy=0;" edge="1" parent="1" target="Rr33tOqjU5spiXmUpDak-73">
          <mxGeometry width="50" height="50" relative="1" as="geometry">
            <mxPoint x="560" y="170" as="sourcePoint" />
            <mxPoint x="590" y="179.66" as="targetPoint" />
          </mxGeometry>
        </mxCell>
        <mxCell id="QVkCIDDhiGdK2KimFXB9-64" style="edgeStyle=orthogonalEdgeStyle;rounded=0;orthogonalLoop=1;jettySize=auto;html=1;entryX=0;entryY=0.5;entryDx=0;entryDy=0;" edge="1" source="QVkCIDDhiGdK2KimFXB9-66" target="QVkCIDDhiGdK2KimFXB9-79" parent="1">
          <mxGeometry relative="1" as="geometry" />
        </mxCell>
        <mxCell id="QVkCIDDhiGdK2KimFXB9-65" value="next()" style="edgeLabel;html=1;align=center;verticalAlign=middle;resizable=0;points=[];" vertex="1" connectable="0" parent="QVkCIDDhiGdK2KimFXB9-64">
          <mxGeometry x="-0.2465" y="-1" relative="1" as="geometry">
            <mxPoint x="6" y="-6" as="offset" />
          </mxGeometry>
        </mxCell>
        <mxCell id="QVkCIDDhiGdK2KimFXB9-66" value="CTR&lt;sub&gt;1&lt;/sub&gt;" style="rounded=0;whiteSpace=wrap;html=1;" vertex="1" parent="1">
          <mxGeometry x="150" y="395" width="120" height="30" as="geometry" />
        </mxCell>
        <mxCell id="QVkCIDDhiGdK2KimFXB9-67" value="" style="endArrow=classic;html=1;rounded=0;exitX=0.5;exitY=1;exitDx=0;exitDy=0;entryX=0.5;entryY=0;entryDx=0;entryDy=0;entryPerimeter=0;" edge="1" source="QVkCIDDhiGdK2KimFXB9-66" parent="1">
          <mxGeometry width="50" height="50" relative="1" as="geometry">
            <mxPoint x="310" y="525" as="sourcePoint" />
            <mxPoint x="210" y="480" as="targetPoint" />
          </mxGeometry>
        </mxCell>
        <mxCell id="QVkCIDDhiGdK2KimFXB9-68" style="edgeStyle=orthogonalEdgeStyle;rounded=0;orthogonalLoop=1;jettySize=auto;html=1;entryX=0.5;entryY=0;entryDx=0;entryDy=0;" edge="1" source="QVkCIDDhiGdK2KimFXB9-69" target="QVkCIDDhiGdK2KimFXB9-76" parent="1">
          <mxGeometry relative="1" as="geometry" />
        </mxCell>
        <mxCell id="QVkCIDDhiGdK2KimFXB9-69" value="" style="verticalLabelPosition=bottom;verticalAlign=top;html=1;shape=mxgraph.flowchart.summing_function;" vertex="1" parent="1">
          <mxGeometry x="200" y="575" width="20" height="20" as="geometry" />
        </mxCell>
        <mxCell id="QVkCIDDhiGdK2KimFXB9-70" value="" style="endArrow=classic;html=1;rounded=0;entryX=0;entryY=0.5;entryDx=0;entryDy=0;" edge="1" parent="1">
          <mxGeometry width="50" height="50" relative="1" as="geometry">
            <mxPoint x="130" y="505" as="sourcePoint" />
            <mxPoint x="160" y="505" as="targetPoint" />
          </mxGeometry>
        </mxCell>
        <mxCell id="QVkCIDDhiGdK2KimFXB9-71" value="K&lt;sub&gt;1&lt;/sub&gt;" style="text;html=1;strokeColor=default;fillColor=none;align=center;verticalAlign=middle;whiteSpace=wrap;rounded=0;" vertex="1" parent="1">
          <mxGeometry x="90" y="490" width="40" height="30" as="geometry" />
        </mxCell>
        <mxCell id="QVkCIDDhiGdK2KimFXB9-72" value="AES&lt;sub&gt;Enc&lt;/sub&gt;" style="rounded=0;whiteSpace=wrap;html=1;" vertex="1" parent="1">
          <mxGeometry x="160" y="480" width="100" height="50" as="geometry" />
        </mxCell>
        <mxCell id="QVkCIDDhiGdK2KimFXB9-73" style="edgeStyle=orthogonalEdgeStyle;rounded=0;orthogonalLoop=1;jettySize=auto;html=1;entryX=0.5;entryY=0;entryDx=0;entryDy=0;entryPerimeter=0;" edge="1" source="QVkCIDDhiGdK2KimFXB9-72" target="QVkCIDDhiGdK2KimFXB9-69" parent="1">
          <mxGeometry relative="1" as="geometry" />
        </mxCell>
        <mxCell id="QVkCIDDhiGdK2KimFXB9-74" value="C&lt;sub&gt;1&lt;/sub&gt;" style="rounded=0;whiteSpace=wrap;html=1;" vertex="1" parent="1">
          <mxGeometry x="80" y="570" width="80" height="30" as="geometry" />
        </mxCell>
        <mxCell id="QVkCIDDhiGdK2KimFXB9-75" style="edgeStyle=orthogonalEdgeStyle;rounded=0;orthogonalLoop=1;jettySize=auto;html=1;entryX=0;entryY=0.5;entryDx=0;entryDy=0;entryPerimeter=0;" edge="1" source="QVkCIDDhiGdK2KimFXB9-74" target="QVkCIDDhiGdK2KimFXB9-69" parent="1">
          <mxGeometry relative="1" as="geometry" />
        </mxCell>
        <mxCell id="QVkCIDDhiGdK2KimFXB9-76" value="M&lt;sub&gt;1&lt;/sub&gt;" style="rounded=0;whiteSpace=wrap;html=1;" vertex="1" parent="1">
          <mxGeometry x="145" y="645" width="130" height="30" as="geometry" />
        </mxCell>
        <mxCell id="QVkCIDDhiGdK2KimFXB9-77" style="edgeStyle=orthogonalEdgeStyle;rounded=0;orthogonalLoop=1;jettySize=auto;html=1;" edge="1" source="QVkCIDDhiGdK2KimFXB9-79" parent="1">
          <mxGeometry relative="1" as="geometry">
            <mxPoint x="540" y="410" as="targetPoint" />
          </mxGeometry>
        </mxCell>
        <mxCell id="QVkCIDDhiGdK2KimFXB9-78" value="next()" style="edgeLabel;html=1;align=center;verticalAlign=middle;resizable=0;points=[];" vertex="1" connectable="0" parent="QVkCIDDhiGdK2KimFXB9-77">
          <mxGeometry x="-0.226" y="-1" relative="1" as="geometry">
            <mxPoint as="offset" />
          </mxGeometry>
        </mxCell>
        <mxCell id="QVkCIDDhiGdK2KimFXB9-79" value="CTR&lt;sub&gt;2&lt;/sub&gt;" style="rounded=0;whiteSpace=wrap;html=1;" vertex="1" parent="1">
          <mxGeometry x="360" y="395" width="120" height="30" as="geometry" />
        </mxCell>
        <mxCell id="QVkCIDDhiGdK2KimFXB9-80" value="" style="endArrow=classic;html=1;rounded=0;exitX=0.5;exitY=1;exitDx=0;exitDy=0;entryX=0.5;entryY=0;entryDx=0;entryDy=0;entryPerimeter=0;" edge="1" source="QVkCIDDhiGdK2KimFXB9-79" parent="1">
          <mxGeometry width="50" height="50" relative="1" as="geometry">
            <mxPoint x="520" y="525" as="sourcePoint" />
            <mxPoint x="420" y="480" as="targetPoint" />
          </mxGeometry>
        </mxCell>
        <mxCell id="QVkCIDDhiGdK2KimFXB9-81" style="edgeStyle=orthogonalEdgeStyle;rounded=0;orthogonalLoop=1;jettySize=auto;html=1;entryX=0.5;entryY=0;entryDx=0;entryDy=0;" edge="1" source="QVkCIDDhiGdK2KimFXB9-82" target="QVkCIDDhiGdK2KimFXB9-89" parent="1">
          <mxGeometry relative="1" as="geometry" />
        </mxCell>
        <mxCell id="QVkCIDDhiGdK2KimFXB9-82" value="" style="verticalLabelPosition=bottom;verticalAlign=top;html=1;shape=mxgraph.flowchart.summing_function;" vertex="1" parent="1">
          <mxGeometry x="410" y="575" width="20" height="20" as="geometry" />
        </mxCell>
        <mxCell id="QVkCIDDhiGdK2KimFXB9-83" value="" style="endArrow=classic;html=1;rounded=0;entryX=0;entryY=0.5;entryDx=0;entryDy=0;" edge="1" parent="1">
          <mxGeometry width="50" height="50" relative="1" as="geometry">
            <mxPoint x="340" y="505" as="sourcePoint" />
            <mxPoint x="370" y="505" as="targetPoint" />
          </mxGeometry>
        </mxCell>
        <mxCell id="QVkCIDDhiGdK2KimFXB9-84" value="K&lt;sub&gt;2&lt;/sub&gt;" style="text;html=1;strokeColor=default;fillColor=none;align=center;verticalAlign=middle;whiteSpace=wrap;rounded=0;" vertex="1" parent="1">
          <mxGeometry x="300" y="490" width="40" height="30" as="geometry" />
        </mxCell>
        <mxCell id="QVkCIDDhiGdK2KimFXB9-85" value="AES&lt;sub&gt;Enc&lt;/sub&gt;" style="rounded=0;whiteSpace=wrap;html=1;" vertex="1" parent="1">
          <mxGeometry x="370" y="480" width="100" height="50" as="geometry" />
        </mxCell>
        <mxCell id="QVkCIDDhiGdK2KimFXB9-86" style="edgeStyle=orthogonalEdgeStyle;rounded=0;orthogonalLoop=1;jettySize=auto;html=1;entryX=0.5;entryY=0;entryDx=0;entryDy=0;entryPerimeter=0;" edge="1" source="QVkCIDDhiGdK2KimFXB9-85" target="QVkCIDDhiGdK2KimFXB9-82" parent="1">
          <mxGeometry relative="1" as="geometry" />
        </mxCell>
        <mxCell id="QVkCIDDhiGdK2KimFXB9-87" value="C&lt;sub&gt;2&lt;/sub&gt;" style="rounded=0;whiteSpace=wrap;html=1;" vertex="1" parent="1">
          <mxGeometry x="290" y="570" width="80" height="30" as="geometry" />
        </mxCell>
        <mxCell id="QVkCIDDhiGdK2KimFXB9-88" style="edgeStyle=orthogonalEdgeStyle;rounded=0;orthogonalLoop=1;jettySize=auto;html=1;entryX=0;entryY=0.5;entryDx=0;entryDy=0;entryPerimeter=0;" edge="1" source="QVkCIDDhiGdK2KimFXB9-87" target="QVkCIDDhiGdK2KimFXB9-82" parent="1">
          <mxGeometry relative="1" as="geometry" />
        </mxCell>
        <mxCell id="QVkCIDDhiGdK2KimFXB9-89" value="M&lt;sub&gt;2&lt;/sub&gt;" style="rounded=0;whiteSpace=wrap;html=1;" vertex="1" parent="1">
          <mxGeometry x="355" y="645" width="130" height="30" as="geometry" />
        </mxCell>
        <mxCell id="QVkCIDDhiGdK2KimFXB9-90" value="CTR&lt;sub&gt;n&lt;/sub&gt;" style="rounded=0;whiteSpace=wrap;html=1;" vertex="1" parent="1">
          <mxGeometry x="650" y="395" width="120" height="30" as="geometry" />
        </mxCell>
        <mxCell id="QVkCIDDhiGdK2KimFXB9-91" value="" style="endArrow=classic;html=1;rounded=0;exitX=0.5;exitY=1;exitDx=0;exitDy=0;entryX=0.5;entryY=0;entryDx=0;entryDy=0;entryPerimeter=0;" edge="1" source="QVkCIDDhiGdK2KimFXB9-90" parent="1">
          <mxGeometry width="50" height="50" relative="1" as="geometry">
            <mxPoint x="810" y="515" as="sourcePoint" />
            <mxPoint x="710" y="470" as="targetPoint" />
          </mxGeometry>
        </mxCell>
        <mxCell id="QVkCIDDhiGdK2KimFXB9-92" style="edgeStyle=orthogonalEdgeStyle;rounded=0;orthogonalLoop=1;jettySize=auto;html=1;entryX=0.5;entryY=0;entryDx=0;entryDy=0;" edge="1" source="QVkCIDDhiGdK2KimFXB9-93" target="QVkCIDDhiGdK2KimFXB9-100" parent="1">
          <mxGeometry relative="1" as="geometry" />
        </mxCell>
        <mxCell id="QVkCIDDhiGdK2KimFXB9-93" value="" style="verticalLabelPosition=bottom;verticalAlign=top;html=1;shape=mxgraph.flowchart.summing_function;" vertex="1" parent="1">
          <mxGeometry x="700" y="565" width="20" height="20" as="geometry" />
        </mxCell>
        <mxCell id="QVkCIDDhiGdK2KimFXB9-94" value="" style="endArrow=classic;html=1;rounded=0;entryX=0;entryY=0.5;entryDx=0;entryDy=0;" edge="1" parent="1">
          <mxGeometry width="50" height="50" relative="1" as="geometry">
            <mxPoint x="630" y="495" as="sourcePoint" />
            <mxPoint x="660" y="495" as="targetPoint" />
          </mxGeometry>
        </mxCell>
        <mxCell id="QVkCIDDhiGdK2KimFXB9-95" value="K&lt;sub&gt;n&lt;/sub&gt;" style="text;html=1;strokeColor=default;fillColor=none;align=center;verticalAlign=middle;whiteSpace=wrap;rounded=0;" vertex="1" parent="1">
          <mxGeometry x="590" y="480" width="40" height="30" as="geometry" />
        </mxCell>
        <mxCell id="QVkCIDDhiGdK2KimFXB9-96" value="AES&lt;sub&gt;Enc&lt;/sub&gt;" style="rounded=0;whiteSpace=wrap;html=1;" vertex="1" parent="1">
          <mxGeometry x="660" y="470" width="100" height="50" as="geometry" />
        </mxCell>
        <mxCell id="QVkCIDDhiGdK2KimFXB9-97" style="edgeStyle=orthogonalEdgeStyle;rounded=0;orthogonalLoop=1;jettySize=auto;html=1;entryX=0.5;entryY=0;entryDx=0;entryDy=0;entryPerimeter=0;" edge="1" source="QVkCIDDhiGdK2KimFXB9-96" target="QVkCIDDhiGdK2KimFXB9-93" parent="1">
          <mxGeometry relative="1" as="geometry" />
        </mxCell>
        <mxCell id="QVkCIDDhiGdK2KimFXB9-98" value="C&lt;sub&gt;n&lt;/sub&gt;" style="rounded=0;whiteSpace=wrap;html=1;" vertex="1" parent="1">
          <mxGeometry x="580" y="560" width="80" height="30" as="geometry" />
        </mxCell>
        <mxCell id="QVkCIDDhiGdK2KimFXB9-99" style="edgeStyle=orthogonalEdgeStyle;rounded=0;orthogonalLoop=1;jettySize=auto;html=1;entryX=0;entryY=0.5;entryDx=0;entryDy=0;entryPerimeter=0;" edge="1" source="QVkCIDDhiGdK2KimFXB9-98" target="QVkCIDDhiGdK2KimFXB9-93" parent="1">
          <mxGeometry relative="1" as="geometry" />
        </mxCell>
        <mxCell id="QVkCIDDhiGdK2KimFXB9-100" value="M&lt;sub&gt;n&lt;/sub&gt;" style="rounded=0;whiteSpace=wrap;html=1;" vertex="1" parent="1">
          <mxGeometry x="645" y="635" width="130" height="30" as="geometry" />
        </mxCell>
        <mxCell id="QVkCIDDhiGdK2KimFXB9-101" value="..." style="text;html=1;align=center;verticalAlign=middle;whiteSpace=wrap;rounded=0;" vertex="1" parent="1">
          <mxGeometry x="510" y="500" width="60" height="30" as="geometry" />
        </mxCell>
        <mxCell id="QVkCIDDhiGdK2KimFXB9-102" value="(B)" style="text;html=1;strokeColor=none;fillColor=none;align=center;verticalAlign=middle;whiteSpace=wrap;rounded=0;fontStyle=1" vertex="1" parent="1">
          <mxGeometry x="407.5" y="675" width="40" height="30" as="geometry" />
        </mxCell>
        <mxCell id="QVkCIDDhiGdK2KimFXB9-103" style="edgeStyle=orthogonalEdgeStyle;rounded=0;orthogonalLoop=1;jettySize=auto;html=1;entryX=0;entryY=0.5;entryDx=0;entryDy=0;" edge="1" target="QVkCIDDhiGdK2KimFXB9-90" parent="1">
          <mxGeometry relative="1" as="geometry">
            <mxPoint x="556" y="420" as="targetPoint" />
            <mxPoint x="590" y="410" as="sourcePoint" />
          </mxGeometry>
        </mxCell>
        <mxCell id="QVkCIDDhiGdK2KimFXB9-104" value="next()" style="edgeLabel;html=1;align=center;verticalAlign=middle;resizable=0;points=[];" vertex="1" connectable="0" parent="QVkCIDDhiGdK2KimFXB9-103">
          <mxGeometry x="-0.3215" y="1" relative="1" as="geometry">
            <mxPoint x="4" y="1" as="offset" />
          </mxGeometry>
        </mxCell>
        <mxCell id="QVkCIDDhiGdK2KimFXB9-105" value="" style="whiteSpace=wrap;html=1;strokeColor=none;" vertex="1" parent="1">
          <mxGeometry x="190" y="439" width="40" height="10" as="geometry" />
        </mxCell>
        <mxCell id="QVkCIDDhiGdK2KimFXB9-106" style="edgeStyle=orthogonalEdgeStyle;rounded=0;orthogonalLoop=1;jettySize=auto;html=1;entryX=0;entryY=0.5;entryDx=0;entryDy=0;" edge="1" source="QVkCIDDhiGdK2KimFXB9-71" target="QVkCIDDhiGdK2KimFXB9-84" parent="1">
          <mxGeometry relative="1" as="geometry">
            <Array as="points">
              <mxPoint x="110" y="445" />
              <mxPoint x="280" y="445" />
              <mxPoint x="280" y="505" />
            </Array>
          </mxGeometry>
        </mxCell>
        <mxCell id="QVkCIDDhiGdK2KimFXB9-107" value="next()" style="edgeLabel;html=1;align=center;verticalAlign=middle;resizable=0;points=[];" vertex="1" connectable="0" parent="QVkCIDDhiGdK2KimFXB9-106">
          <mxGeometry x="-0.5688" y="1" relative="1" as="geometry">
            <mxPoint x="15" as="offset" />
          </mxGeometry>
        </mxCell>
        <mxCell id="QVkCIDDhiGdK2KimFXB9-108" value="IV" style="text;html=1;strokeColor=default;fillColor=default;align=center;verticalAlign=middle;whiteSpace=wrap;rounded=0;" vertex="1" parent="1">
          <mxGeometry x="70" y="395" width="40" height="30" as="geometry" />
        </mxCell>
        <mxCell id="QVkCIDDhiGdK2KimFXB9-109" style="edgeStyle=orthogonalEdgeStyle;rounded=0;orthogonalLoop=1;jettySize=auto;html=1;entryX=0;entryY=0.5;entryDx=0;entryDy=0;" edge="1" source="QVkCIDDhiGdK2KimFXB9-108" target="QVkCIDDhiGdK2KimFXB9-66" parent="1">
          <mxGeometry relative="1" as="geometry" />
        </mxCell>
        <mxCell id="QVkCIDDhiGdK2KimFXB9-110" value="" style="endArrow=classic;html=1;rounded=0;" edge="1" target="QVkCIDDhiGdK2KimFXB9-71" parent="1">
          <mxGeometry width="50" height="50" relative="1" as="geometry">
            <mxPoint x="50" y="505" as="sourcePoint" />
            <mxPoint x="140" y="445" as="targetPoint" />
          </mxGeometry>
        </mxCell>
        <mxCell id="QVkCIDDhiGdK2KimFXB9-111" value="" style="endArrow=classic;html=1;rounded=0;entryX=0;entryY=0.5;entryDx=0;entryDy=0;" edge="1" target="QVkCIDDhiGdK2KimFXB9-108" parent="1">
          <mxGeometry width="50" height="50" relative="1" as="geometry">
            <mxPoint x="40" y="410" as="sourcePoint" />
            <mxPoint x="100" y="515" as="targetPoint" />
          </mxGeometry>
        </mxCell>
        <mxCell id="QVkCIDDhiGdK2KimFXB9-112" value="" style="whiteSpace=wrap;html=1;strokeColor=none;" vertex="1" parent="1">
          <mxGeometry x="400" y="439" width="40" height="10" as="geometry" />
        </mxCell>
        <mxCell id="QVkCIDDhiGdK2KimFXB9-113" style="edgeStyle=orthogonalEdgeStyle;rounded=0;orthogonalLoop=1;jettySize=auto;html=1;" edge="1" source="QVkCIDDhiGdK2KimFXB9-84" parent="1">
          <mxGeometry relative="1" as="geometry">
            <mxPoint x="500" y="445" as="targetPoint" />
            <Array as="points">
              <mxPoint x="320" y="445" />
              <mxPoint x="490" y="445" />
            </Array>
          </mxGeometry>
        </mxCell>
        <mxCell id="QVkCIDDhiGdK2KimFXB9-114" value="next()" style="edgeLabel;html=1;align=center;verticalAlign=middle;resizable=0;points=[];" vertex="1" connectable="0" parent="QVkCIDDhiGdK2KimFXB9-113">
          <mxGeometry x="-0.325" y="-1" relative="1" as="geometry">
            <mxPoint as="offset" />
          </mxGeometry>
        </mxCell>
        <mxCell id="QVkCIDDhiGdK2KimFXB9-115" value="" style="endArrow=classic;html=1;rounded=0;entryX=0;entryY=0.5;entryDx=0;entryDy=0;" edge="1" target="QVkCIDDhiGdK2KimFXB9-95" parent="1">
          <mxGeometry width="50" height="50" relative="1" as="geometry">
            <mxPoint x="560" y="495" as="sourcePoint" />
            <mxPoint x="590" y="504.65999999999997" as="targetPoint" />
          </mxGeometry>
        </mxCell>
      </root>
    </mxGraphModel>
  </diagram>
</mxfile>
